<?xml version="1.0" encoding="UTF-8" standalone="no"?>
<!DOCTYPE svg PUBLIC "-//W3C//DTD SVG 1.0//EN" "http://www.w3.org/TR/2001/PR-SVG-20010719/DTD/svg10.dtd">
<svg width="23cm" height="26cm" viewBox="388 2 458 514" xmlns="http://www.w3.org/2000/svg" xmlns:xlink="http://www.w3.org/1999/xlink">
  <g>
    <polygon style="fill: #000000" points="614.393,3.17873 685.728,73.9467 614.393,144.715 543.058,73.9467 "/>
    <polygon style="fill: none; fill-opacity:0; stroke-width: 2; stroke: #ffffff" points="614.393,3.17873 685.728,73.9467 614.393,144.715 543.058,73.9467 "/>
    <text font-size="14" style="fill: #ffffff;text-anchor:middle;font-family:Helvetica,sans-serif;font-style:normal;font-weight:normal" x="614.393" y="77.8467">
      <tspan x="614.393" y="77.8467">Groundwork</tspan>
    </text>
    <text font-size="12" style="fill: #ffffff;text-anchor:middle;font-family:Helvetica,sans-serif;font-style:normal;font-weight:normal" x="615" y="263.4">
      <tspan x="614.393" y="97.8467">(40-50 hours)</tspan>
    </text>
  </g>
  <text font-size="14" style="fill: #000000;text-anchor:start;font-family:Helvetica,sans-serif;font-style:normal;font-weight:normal" x="614.393" y="73.9467">
    <tspan x="614.393" y="73.9467"></tspan>
  </text>
  <g>
    <rect rx="15" ry="15" style="fill: #000000" x="517" y="202" width="200" height="80"/>
    <rect rx="15" ry="15" style="fill: none; fill-opacity:0; stroke-width: 2; stroke: #ffffff" x="517" y="202" width="200" height="80"/>
    <text font-size="14" style="fill: #ffffff;text-anchor:middle;font-family:Helvetica,sans-serif;font-style:normal;font-weight:normal" x="615" y="263.4">
      <tspan x="615" y="245.4">Web Fundamentals</tspan>
    </text>
    <text font-size="12" style="fill: #ffffff;text-anchor:middle;font-family:Helvetica,sans-serif;font-style:normal;font-weight:normal" x="615" y="263.4">
      <tspan x="615" y="260.4">(6 weeks)</tspan>
    </text>
  </g>
  <g>
    <rect rx="15" ry="15" style="fill: #000000" x="390" y="364.7" width="200" height="80"/>
    <rect rx="15" ry="15" style="fill: none; fill-opacity:0; stroke-width: 2; stroke: #ffffff" x="390" y="364.7" width="200" height="80"/>
    <text font-size="14" style="fill: #ffffff;text-anchor:middle;font-family:Helvetica,sans-serif;font-style:normal;font-weight:normal" x="488" y="461.1">
      <tspan x="490" y="408.1">Agile Ruby on Rails Developer</tspan>
    </text>
    <text font-size="12" style="fill: #ffffff;text-anchor:middle;font-family:Helvetica,sans-serif;font-style:normal;font-weight:normal" x="615" y="263.4">
      <tspan x="490" y="423.1">(6 weeks)</tspan>
    </text>
  </g>
  <g>
    <rect rx="15" ry="15" style="fill: #000000" x="645" y="364.7" width="200" height="80"/>
    <rect rx="15" ry="15" style="fill: none; fill-opacity:0; stroke-width: 2; stroke: #ffffff" x="645" y="364.7" width="200" height="80"/>
    <text font-size="14" style="fill: #ffffff;text-anchor:middle;font-family:Helvetica,sans-serif;font-style:normal;font-weight:normal" x="747" y="461.1">
      <tspan x="747" y="408.1">Mobile Web Developer</tspan>
    </text>
    <text font-size="12" style="fill: #ffffff;text-anchor:middle;font-family:Helvetica,sans-serif;font-style:normal;font-weight:normal" x="615" y="263.4">
      <tspan x="747" y="423.1">(6 weeks)</tspan>
    </text>
  </g>
    <g>
      <line style="fill: none; fill-opacity:0; stroke-width: 2; stroke: #ffffff" x1="614.393" y1="144.715" x2="614.953" y2="197.528"/>
      <polyline style="fill: none; fill-opacity:0; stroke-width: 2; stroke: #ffffff" points="609.871,189.818 614.976,199.764 619.87,189.712 "/>
    </g>
  <g transform="translate(0 -35)">
    <g>
      <line style="fill: none; fill-opacity:0; stroke-width: 2; stroke: #ffffff" x1="615" y1="317" x2="491.748" y2="397.26"/>
      <polyline style="fill: none; fill-opacity:0; stroke-width: 2; stroke: #ffffff" points="495.525,388.833 489.874,398.48 500.982,397.213 "/>
    </g>
    <g>
      <line style="fill: none; fill-opacity:0; stroke-width: 2; stroke: #ffffff" x1="615" y1="317" x2="743.21" y2="397.326"/>
      <polyline style="fill: none; fill-opacity:0; stroke-width: 2; stroke: #ffffff" points="733.976,397.441 745.105,398.513 739.286,388.966 "/>
    </g>
  </g>
</svg>
